<?xml version="1.0" encoding="UTF-8"?>
<!-- Generator: visioncortex VTracer 0.6.3 -->
<svg version="1.1" xmlns="http://www.w3.org/2000/svg" width="1280" height="1280">
<path d="M0 0 C0 0.66 0 1.32 0 2 C0.74 2.08 1.49 2.16 2.25 2.25 C5 3 5 3 6.62 4.91 C10.03 7.9 13.49 8.31 17.88 9.12 C29.21 11.36 29.21 11.36 33 13 C33.9 14.77 34.8 16.54 35.66 18.32 C37.98 21.23 41.25 21.62 44.76 22.39 C47 23 47 23 49 25 C49.43 26.24 49.43 26.24 49.88 27.5 C51.25 30.57 51.98 30.69 55 32 C58.21 34.13 61.27 36.27 64 39 C64.66 39.33 65.32 39.66 66 40 C66 40.99 66 41.98 66 43 C67.49 42.5 67.49 42.5 69 42 C69.23 42.72 69.45 43.44 69.69 44.19 C70.89 47.18 70.89 47.18 73.56 49.56 C76.07 52.07 76.25 52.78 77 56 C78.79 57.51 78.79 57.51 81 59 C84.57 61.96 86.24 64.24 87.5 68.62 C88.54 72.37 88.54 72.37 91.62 74.81 C92.41 75.2 93.19 75.6 94 76 C94.81 78.19 94.81 78.19 95 80 C95.66 80 96.32 80 97 80 C97.36 81.48 97.71 82.96 98.06 84.44 C98.26 85.26 98.46 86.08 98.66 86.93 C98.77 87.62 98.88 88.3 99 89 C98.67 89.33 98.34 89.66 98 90 C98.66 90.33 99.32 90.66 100 91 C100.71 93.14 100.71 93.14 101.38 95.81 C102.56 100.04 103.73 102.03 107 105 C114.47 117.93 112.31 136.49 112.26 150.81 C112.25 154.49 112.26 158.18 112.27 161.86 C112.3 197.26 112.3 197.26 105 207 C104.01 207.33 103.02 207.66 102 208 C101.87 208.66 101.73 209.33 101.6 210.01 C101.07 212.67 100.53 215.34 100 218 C99.85 218.86 99.69 219.71 99.53 220.59 C98.78 223.97 97.42 226.85 96 230 C95.34 230 94.68 230 94 230 C93.92 230.62 93.83 231.24 93.75 231.88 C93.5 232.58 93.25 233.28 93 234 C92.35 234.29 91.7 234.58 91.04 234.88 C88.86 235.81 88.86 235.81 88.2 237.85 C88.03 238.58 87.86 239.31 87.69 240.06 C85.59 247.24 80.14 254.72 73.5 258.38 C70.59 260.27 69.68 262.01 68 265 C65.91 267.37 64.13 268.93 61.38 270.5 C58.91 271.76 58.91 271.76 58.09 273.87 C56.79 276.4 55.29 277.73 53.12 279.56 C52.11 280.43 52.11 280.43 51.07 281.32 C50.39 281.87 49.7 282.43 49 283 C48.35 283.55 47.7 284.1 47.03 284.66 C44.73 286.17 43.08 286.5 40.38 286.88 C38.03 287.27 38.03 287.27 36 288 C34.32 290.47 34.32 290.47 34 293 C33.34 293 32.68 293 32 293 C32 293.66 32 294.32 32 295 C30.68 295 29.36 295 28 295 C28.33 295.66 28.66 296.32 29 297 C27.76 297.27 26.52 297.54 25.25 297.81 C24.44 298 23.63 298.18 22.79 298.37 C20.8 298.82 18.8 299.25 16.8 299.66 C15.2 300.01 15.2 300.01 13.56 300.38 C12.05 300.7 12.05 300.7 10.5 301.02 C7.86 301.75 7.86 301.75 6.83 304.05 C6.55 304.69 6.28 305.34 6 306 C2.04 307.14 -1.03 307.05 -5 306 C-5.33 306.66 -5.66 307.32 -6 308 C-5.34 308.66 -4.68 309.32 -4 310 C-16.85 311.77 -29.49 312.31 -42.45 312.26 C-45.5 312.25 -48.54 312.26 -51.59 312.27 C-63.53 312.28 -75.17 311.63 -87 310 C-87 309.67 -87 309.34 -87 309 C-87.9 308.74 -87.9 308.74 -88.83 308.48 C-93.76 306.99 -96.35 305.65 -100 302 C-104.85 299.87 -104.85 299.87 -110 299 C-111.36 298.68 -112.71 298.34 -114.06 298 C-114.8 297.81 -115.53 297.63 -116.29 297.44 C-116.85 297.29 -117.42 297.15 -118 297 C-118 296.34 -118 295.68 -118 295 C-118.76 294.94 -119.53 294.88 -120.31 294.81 C-121.2 294.54 -122.09 294.28 -123 294 C-123.59 292.86 -123.59 292.86 -124.19 291.69 C-126.66 288.02 -129.41 287.44 -133.48 285.97 C-136.77 284.7 -139.24 283.18 -142 281 C-142 280.34 -142 279.68 -142 279 C-142.99 278.67 -143.98 278.34 -145 278 C-147.29 275.83 -149.46 273.6 -151.56 271.25 C-152.94 269.84 -152.94 269.84 -155 269.62 C-157.97 268.7 -158.52 266.64 -160 264 C-160.99 263.34 -161.98 262.68 -163 262 C-163.95 260.27 -164.89 258.55 -165.82 256.81 C-167.1 254.85 -168.41 253.68 -170.25 252.25 C-171.16 251.51 -172.06 250.76 -173 250 C-173 249.01 -173 248.02 -173 247 C-173.99 246.67 -174.98 246.34 -176 246 C-176.92 243.93 -176.92 243.93 -177.75 241.31 C-179.15 237.5 -180.26 235.43 -183.56 233.06 C-188.35 229.44 -188.82 224.63 -190 219 C-191.48 213.1 -192.48 209.22 -197 205 C-197.75 201.75 -197.75 201.75 -198 199 C-198.66 199 -199.32 199 -200 199 C-201.5 191.69 -202.38 184.58 -202.62 177.12 C-202.66 176.13 -202.7 175.14 -202.74 174.12 C-204.69 117.38 -204.69 117.38 -199 106 C-198.34 106 -197.68 106 -197 106 C-196.6 105.13 -196.6 105.13 -196.19 104.25 C-195 102 -195 102 -193.5 100.19 C-191.52 97.3 -190.84 94.37 -190 91 C-190.66 90.67 -191.32 90.34 -192 90 C-191.34 90 -190.68 90 -190 90 C-189.87 89.28 -189.73 88.57 -189.6 87.83 C-189.01 85.06 -188.27 82.4 -187.44 79.69 C-187.17 78.8 -186.9 77.92 -186.62 77.01 C-186.31 76.02 -186.31 76.02 -186 75 C-185.01 75 -184.02 75 -183 75 C-181.66 74.69 -180.32 74.37 -179 74 C-179.06 73.42 -179.11 72.83 -179.17 72.23 C-179.22 65.97 -177.28 62.49 -173 58.06 C-171.49 56.53 -169.97 55.01 -168.45 53.5 C-166.27 51.24 -164.37 48.78 -162.44 46.31 C-157.39 40.05 -151.6 34.81 -145.27 29.87 C-142.93 28.2 -142.93 28.2 -142 26 C-138.67 23.69 -135.96 22.69 -132 22 C-128.21 21.03 -126.61 19.65 -124.31 16.62 C-119.41 10.61 -112.61 9.15 -105.19 8.12 C-100.72 7.48 -100.72 7.48 -97.69 4.06 C-97.32 3.53 -96.96 3.01 -96.59 2.46 C-80.87 -12.02 -19.28 -4.66 0 0 Z M95 220 C94.67 220.66 94.34 221.32 94 222 C94.99 221.67 95.98 221.34 97 221 C96.34 220.67 95.68 220.34 95 220 Z M94 225 C94.33 225.99 94.66 226.98 95 228 C95 227.01 95 226.02 95 225 C94.67 225 94.34 225 94 225 Z M92 227 C93 229 93 229 93 229 Z M21 294 C21 297 21 297 21 297 Z M17 295 C18 298 18 298 18 298 Z M-84 307 C-84 307.33 -84 307.66 -84 308 C-81.69 308 -79.38 308 -77 308 C-77 307.67 -77 307.34 -77 307 C-79.31 307 -81.62 307 -84 307 Z " fill="#FBFBFB" transform="translate(250,511)"/>
<path d="M0 0 C0 0.66 0 1.32 0 2 C1.3 2.09 1.3 2.09 2.62 2.19 C6.24 3.06 7.51 4.36 10.18 6.8 C13.24 8.82 16.59 9.02 20.16 9.53 C24.28 10.21 28.1 11.55 32 13 C32 13.66 32 14.32 32 15 C32.99 15.33 33.98 15.66 35 16 C35.44 16.96 35.44 16.96 35.88 17.93 C37.4 20.74 38.9 21.08 41.88 22.12 C50.53 25.25 50.53 25.25 52.81 28.88 C54.89 31.85 55.65 32.56 58.69 34.12 C62 36 62 36 62.94 38.25 C62.97 39.12 62.97 39.12 63 40 C64.18 40.19 64.18 40.19 65.38 40.38 C68 41 68 41 70 43 C70.43 44.21 70.43 44.21 70.88 45.44 C72.16 48.36 73.45 49.19 76 51 C76.33 51.99 76.66 52.98 77 54 C77.99 54.33 78.98 54.66 80 55 C80.33 55.99 80.66 56.98 81 58 C81.66 58.33 82.32 58.66 83 59 C83.33 59.99 83.66 60.98 84 62 C84.5 62.46 85 62.93 85.51 63.4 C87.4 65.43 87.51 66.84 87.88 69.56 C88.27 71.94 88.27 71.94 89 74 C91.44 75.31 91.44 75.31 94 76 C95.19 78.56 95.19 78.56 96 81 C96.66 81.33 97.32 81.66 98 82 C98.26 83.99 98.51 85.99 98.66 87.99 C98.91 90.31 98.91 90.31 101 93 C101.27 94.97 101.27 94.97 101.38 97.06 C101.58 98.36 101.79 99.66 102 101 C103.87 102.18 103.87 102.18 106 103 C108.62 107.12 109.35 110.14 109 115 C109.66 115 110.32 115 111 115 C112.15 120.7 112.34 126.39 112.56 132.19 C112.63 133.79 112.63 133.79 112.69 135.43 C113.19 149.25 113.1 162.99 112.56 176.81 C112.52 177.83 112.48 178.85 112.44 179.91 C112.24 184.68 111.95 189.3 111 194 C110.67 194 110.34 194 110 194 C109.89 194.84 109.89 194.84 109.77 195.69 C108.8 201.34 107.01 204.67 103.4 209.08 C100.74 212.73 100 216.51 100 221 C99.06 223.36 98.05 225.69 97 228 C96.69 228.74 96.38 229.49 96.06 230.25 C94.71 232.48 93.2 233.63 91 235 C90.34 235 89.68 235 89 235 C88.88 235.63 88.76 236.25 88.63 236.9 C88.47 237.72 88.3 238.53 88.12 239.38 C87.88 240.59 87.88 240.59 87.63 241.84 C87 244 87 244 85 246 C84.73 246.64 84.46 247.28 84.19 247.94 C83 250 83 250 80.56 251.44 C77.87 252.8 77.87 252.8 76.64 255.33 C74.83 258.28 72.89 260.07 70.25 262.31 C66.97 265.18 63.99 268.04 61.19 271.38 C58.69 274.35 56.34 276.01 53 278 C52.48 278.95 51.97 279.9 51.44 280.88 C48.18 285.06 44.65 285.88 39.78 287.7 C36.99 289 36.04 289.7 34.56 292.31 C34.05 293.2 33.53 294.09 33 295 C30.25 295.38 30.25 295.38 28 295 C28.66 295.66 29.32 296.32 30 297 C28.97 297.12 27.94 297.25 26.88 297.38 C23.33 297.95 20.36 298.77 17 300 C16.34 300.22 15.67 300.43 14.99 300.66 C10.57 302.15 10.57 302.15 7 305.06 C4.02 307.95 1.03 308.19 -3 309 C-3 309.33 -3 309.66 -3 310 C-15.58 312.75 -28.86 312.19 -41.67 312.19 C-44.66 312.19 -47.66 312.21 -50.66 312.22 C-62.91 312.26 -74.86 311.57 -87 310 C-87 309.67 -87 309.34 -87 309 C-87.63 308.83 -88.25 308.66 -88.9 308.48 C-89.72 308.24 -90.53 308 -91.38 307.75 C-92.19 307.52 -93 307.29 -93.84 307.05 C-96 306 -96 306 -97 303.96 C-97.83 301.79 -97.83 301.79 -100.14 301.24 C-100.98 301.12 -101.82 301 -102.69 300.88 C-103.58 300.73 -104.47 300.58 -105.39 300.43 C-106.25 300.29 -107.11 300.15 -108 300 C-111.75 299.12 -114.75 298.17 -118 296 C-118 295.67 -118 295.34 -118 295 C-119.08 294.66 -119.08 294.66 -120.19 294.31 C-123 293 -123 293 -125.25 290.56 C-128.4 287.63 -130.8 286.93 -134.85 285.75 C-137.75 284.74 -139.74 283.05 -142 281 C-142.66 280.67 -143.32 280.34 -144 280 C-144.5 278.51 -144.5 278.51 -145 277 C-145.66 276.67 -146.32 276.34 -147 276 C-147.41 275.24 -147.83 274.47 -148.25 273.69 C-150.39 270.4 -152.69 269.08 -156 267 C-160.36 263.6 -163.87 260.31 -166.81 255.62 C-168.65 252.8 -169.89 251.08 -172.62 249.06 C-176.31 245.87 -177.57 241.58 -179 237 C-179 236.34 -179 235.68 -179 235 C-180.65 234.34 -182.3 233.68 -184 233 C-184 232.34 -184 231.68 -184 231 C-184.66 231 -185.32 231 -186 231 C-188.49 224.08 -190.46 217.5 -191.31 210.18 C-191.78 207.83 -191.78 207.83 -193.93 206.93 C-194.95 206.47 -194.95 206.47 -196 206 C-203.04 196.15 -202.31 181.19 -202.27 169.66 C-202.27 168.44 -202.27 167.23 -202.27 165.98 C-202.27 163.44 -202.27 160.9 -202.26 158.36 C-202.25 154.51 -202.26 150.66 -202.27 146.81 C-202.27 144.32 -202.27 141.83 -202.27 139.34 C-202.27 137.65 -202.27 137.65 -202.28 135.92 C-202.23 127.8 -201.28 120.01 -200 112 C-199.66 109.67 -199.33 107.33 -199 105 C-198.01 105 -197.02 105 -196 105 C-195.34 103.68 -194.68 102.36 -194 101 C-193.34 101 -192.68 101 -192 101 C-191.34 97.7 -190.68 94.4 -190 91 C-190.66 90.67 -191.32 90.34 -192 90 C-191.01 90 -190.02 90 -189 90 C-188.88 89.03 -188.75 88.06 -188.62 87.06 C-188 82.65 -187.01 78.34 -186 74 C-185.34 74.66 -184.68 75.32 -184 76 C-180.49 74.39 -179.2 73.47 -177.64 69.86 C-177.32 68.69 -177.01 67.52 -176.69 66.31 C-176.36 65.13 -176.04 63.95 -175.7 62.74 C-175.47 61.83 -175.24 60.93 -175 60 C-174.2 59.88 -173.4 59.76 -172.58 59.63 C-169.84 59.28 -169.84 59.28 -168.69 56.94 C-168.46 56.3 -168.23 55.66 -168 55 C-167.34 55 -166.68 55 -166 55 C-165.98 54.17 -165.96 53.35 -165.94 52.5 C-163.64 43.93 -154.99 37.9 -148 33 C-147.01 32.67 -146.02 32.34 -145 32 C-144.67 31.17 -144.34 30.35 -144 29.5 C-143.67 28.67 -143.34 27.85 -143 27 C-142.01 26.67 -141.02 26.34 -140 26 C-139.67 25.34 -139.34 24.68 -139 24 C-138.34 24 -137.68 24 -137 24 C-137 23.34 -137 22.68 -137 22 C-136.08 21.94 -136.08 21.94 -135.14 21.89 C-133.92 21.79 -133.92 21.79 -132.69 21.69 C-131.89 21.63 -131.09 21.57 -130.26 21.51 C-127.58 20.9 -126.74 20.08 -125 18 C-121.15 13.6 -117.6 11.44 -112 10 C-111.01 10 -110.02 10 -109 10 C-108.67 9.34 -108.34 8.68 -108 8 C-107.5 8.5 -107.5 8.5 -107 9 C-101.39 8.18 -101.39 8.18 -97.12 4.88 C-96.57 3.95 -96.57 3.95 -96 3 C-95.34 3 -94.68 3 -94 3 C-93.67 2.01 -93.34 1.02 -93 0 C-65.39 -5.02 -27.37 -7.6 0 0 Z M106 111 C107 113 107 113 107 113 Z M108 115 C108 117.31 108 119.62 108 122 C108.33 122 108.66 122 109 122 C109 119.69 109 117.38 109 115 C108.67 115 108.34 115 108 115 Z M108 124 C109 128 109 128 109 128 Z M108 130 C109 132 109 132 109 132 Z M108 174 C109 176 109 176 109 176 Z M108 178 C109 180 109 180 109 180 Z M108 182 C108 184.97 108 187.94 108 191 C108.33 191 108.66 191 109 191 C109 188.03 109 185.06 109 182 C108.67 182 108.34 182 108 182 Z M106 195 C106 196.65 106 198.3 106 200 C106.33 200 106.66 200 107 200 C107 198.35 107 196.7 107 195 C106.67 195 106.34 195 106 195 Z M94 222 C95 224 95 224 95 224 Z M93 228 C94 230 94 230 94 230 Z M21 294 C21 297 21 297 21 297 Z M-4 305 C0 306 0 306 0 306 Z M-83 307 C-79 308 -79 308 -79 308 Z M-22 307 C-22 307.33 -22 307.66 -22 308 C-20.35 308 -18.7 308 -17 308 C-17 307.67 -17 307.34 -17 307 C-18.65 307 -20.3 307 -22 307 Z M-15 307 C-15 307.33 -15 307.66 -15 308 C-12.03 308 -9.06 308 -6 308 C-6 307.67 -6 307.34 -6 307 C-8.97 307 -11.94 307 -15 307 Z " fill="#FBFBFB" transform="translate(1120,511)"/>
<path d="M0 0 C0.76 -0 1.51 -0.01 2.29 -0.01 C10.6 -0.03 18.88 0.1 27.18 0.57 C27.87 0.6 28.56 0.64 29.27 0.68 C34.61 1.02 39.76 1.81 44.94 3.12 C44.94 3.79 44.94 4.45 44.94 5.12 C45.87 5.23 46.79 5.33 47.75 5.44 C50.96 6.13 52.06 6.51 53.94 9.12 C53.94 9.78 53.94 10.45 53.94 11.12 C54.95 11.18 54.95 11.18 55.99 11.24 C64.55 11.84 73.67 12.66 79.94 19.12 C80.21 19.79 80.49 20.45 80.77 21.14 C82.33 23.8 83.72 24.07 86.62 25 C93.07 27.37 96.96 31.1 101.69 35.94 C103.82 38.33 103.82 38.33 106.94 39.12 C107.62 41.19 107.62 41.19 107.94 43.12 C108.72 43.21 109.5 43.29 110.31 43.38 C112.94 44.12 112.94 44.12 114.25 46.12 C114.94 48.12 114.94 48.12 114.94 49.12 C116.46 50.68 118.04 52.16 119.62 53.65 C120.94 55.12 120.94 55.12 120.94 57.12 C121.51 57.15 122.09 57.17 122.69 57.19 C126.29 58.69 127.12 61.74 128.94 65.12 C129.6 65.46 130.26 65.78 130.94 66.12 C131.71 68.91 132.28 71.72 132.86 74.56 C133.69 77.35 133.69 77.35 136.42 78.29 C137.25 78.56 138.08 78.84 138.94 79.12 C140.94 82.12 140.94 82.12 140.94 83.12 C141.6 83.78 142.26 84.44 142.94 85.12 C144.21 91.59 144.21 91.59 142.94 94.12 C143.6 94.12 144.26 94.12 144.94 94.12 C145.04 94.82 145.13 95.52 145.23 96.24 C145.46 97.61 145.46 97.61 145.69 99 C145.9 100.36 145.9 100.36 146.11 101.74 C146.7 104.27 146.7 104.27 148.91 105.31 C149.58 105.58 150.25 105.85 150.94 106.12 C154.21 110.24 154.51 114.04 154.94 119.12 C155.27 119.12 155.6 119.12 155.94 119.12 C156.66 123.66 157.06 128.01 157.07 132.59 C157.07 133.83 157.07 135.07 157.08 136.34 C157.07 138.32 157.07 138.32 157.07 140.34 C157.07 141.73 157.07 143.12 157.07 144.5 C157.07 147.4 157.07 150.29 157.07 153.19 C157.06 156.88 157.07 160.58 157.07 164.27 C157.08 167.13 157.07 169.99 157.07 172.85 C157.07 174.87 157.07 176.89 157.08 178.91 C157.07 180.14 157.07 181.38 157.07 182.66 C157.07 184.28 157.07 184.28 157.06 185.94 C156.93 189.39 156.48 192.72 155.94 196.12 C154.95 196.46 153.96 196.78 152.94 197.12 C153.02 198.32 153.1 199.52 153.19 200.75 C153.2 205.2 151.84 207.71 148.94 211.12 C148.28 211.12 147.62 211.12 146.94 211.12 C146.8 211.82 146.67 212.52 146.54 213.24 C146.36 214.15 146.18 215.06 146 216 C145.74 217.36 145.74 217.36 145.47 218.74 C144.94 221.12 144.94 221.12 143.94 223.12 C143.79 224.28 143.65 225.43 143.5 226.62 C142.94 230.12 142.94 230.12 140.94 232.12 C139.95 231.79 138.96 231.47 137.94 231.12 C137.61 231.46 137.28 231.78 136.94 232.12 C138.26 232.46 139.58 232.78 140.94 233.12 C139.31 234.83 137.64 236.5 135.94 238.12 C135.28 238.12 134.62 238.12 133.94 238.12 C133.81 238.73 133.69 239.34 133.56 239.96 C131.75 247.34 128.32 252.75 122.94 258.12 C122.28 258.12 121.62 258.12 120.94 258.12 C120.6 258.96 120.6 258.96 120.25 259.81 C118.56 262.79 116.47 264.85 113.94 267.12 C113.28 267.12 112.62 267.12 111.94 267.12 C111.61 268.12 111.28 269.11 110.94 270.12 C110.28 270.12 109.62 270.12 108.94 270.12 C108.73 270.67 108.52 271.22 108.3 271.78 C106.44 274.98 103.86 277.2 101.12 279.62 C100.6 280.1 100.08 280.57 99.54 281.06 C90.47 289.24 90.47 289.24 85.81 290.62 C82.37 291.8 80.89 292.97 78.94 296.12 C78.28 296.12 77.62 296.12 76.94 296.12 C76.94 296.79 76.94 297.44 76.94 298.12 C75.62 298.12 74.3 298.12 72.94 298.12 C73.27 298.79 73.6 299.44 73.94 300.12 C73.37 300.25 72.8 300.37 72.21 300.49 C60.76 302.66 60.76 302.66 51.19 308.88 C47.55 310.9 43.92 309.83 39.94 309.12 C39.61 309.79 39.28 310.44 38.94 311.12 C39.93 311.79 40.92 312.44 41.94 313.12 C29.26 315.89 15.91 315.28 3 315.26 C-0.06 315.25 -3.11 315.26 -6.16 315.26 C-32.22 315.27 -32.22 315.27 -42.06 313.12 C-42.06 312.8 -42.06 312.46 -42.06 312.12 C-42.97 311.87 -42.97 311.87 -43.89 311.61 C-48.82 310.11 -51.41 308.78 -55.06 305.12 C-59.45 303.17 -63.97 302.13 -68.69 301.31 C-74.34 300.15 -77.74 296.67 -81.53 292.52 C-83.66 290.58 -86.14 290.01 -88.82 289.05 C-95.81 286.16 -100.69 281.68 -105.42 275.89 C-107.63 273.51 -110.06 272.3 -113.06 271.12 C-112.73 270.46 -112.4 269.81 -112.06 269.12 C-113.42 268.35 -113.42 268.35 -114.81 267.56 C-117.91 265.52 -119.2 263.29 -120.87 259.96 C-122.31 257.74 -123.97 256.49 -126.06 254.88 C-130.92 250.9 -132.56 246.1 -134.06 240.12 C-134.06 239.47 -134.06 238.81 -134.06 238.12 C-135.21 237.72 -135.21 237.72 -136.38 237.31 C-139.7 235.84 -141.51 234.52 -142.86 231.09 C-143.06 230.33 -143.25 229.57 -143.45 228.78 C-143.67 227.95 -143.88 227.11 -144.1 226.25 C-144.32 225.39 -144.53 224.52 -144.75 223.62 C-144.97 222.76 -145.2 221.89 -145.43 221 C-147.06 214.58 -147.06 214.58 -147.06 211.12 C-148.02 210.78 -148.02 210.78 -149 210.44 C-151.06 209.12 -151.06 209.12 -151.69 206.56 C-151.81 205.76 -151.94 204.95 -152.06 204.12 C-152.72 203.79 -153.38 203.47 -154.06 203.12 C-158.71 195.33 -157.21 184.34 -157.2 175.6 C-157.2 174.2 -157.2 172.8 -157.2 171.4 C-157.2 168.49 -157.2 165.57 -157.19 162.65 C-157.19 158.94 -157.19 155.23 -157.2 151.51 C-157.2 148.63 -157.2 145.75 -157.2 142.86 C-157.2 141.5 -157.2 140.13 -157.2 138.76 C-157.23 112.72 -157.23 112.72 -149.44 104 C-146.65 100.62 -145.99 98.34 -145.06 94.12 C-145.72 93.79 -146.38 93.47 -147.06 93.12 C-146.07 92.13 -146.07 92.13 -145.06 91.12 C-144.28 88.75 -143.58 86.41 -142.94 84 C-142.76 83.34 -142.57 82.68 -142.39 82 C-141.94 80.38 -141.5 78.75 -141.06 77.12 C-140.4 77.78 -139.74 78.44 -139.06 79.12 C-136.55 78.55 -136.55 78.55 -134.06 77.12 C-132.99 74.48 -132.99 74.48 -132.56 71.38 C-131.4 65.86 -130.14 62.99 -126.06 59.12 C-125.07 58.63 -125.07 58.63 -124.06 58.12 C-123.73 57.13 -123.4 56.14 -123.06 55.12 C-122.4 55.12 -121.74 55.12 -121.06 55.12 C-120.79 54.54 -120.52 53.96 -120.25 53.36 C-116.46 46.22 -109.96 41.2 -103.71 36.3 C-100.25 33.46 -97.07 30.52 -94.44 26.88 C-90.5 23.97 -85.84 24.29 -81.06 24.12 C-80.78 23.34 -80.51 22.56 -80.22 21.76 C-78.57 18.01 -76.66 17.05 -73.06 15.12 C-69.04 13.67 -64.96 12.53 -60.78 11.64 C-56.32 10.68 -54.05 9.57 -51.06 6.12 C-50.4 6.12 -49.74 6.12 -49.06 6.12 C-48.73 5.47 -48.4 4.8 -48.06 4.12 C-34.67 -2.57 -14.74 0.02 0 0 Z M110.94 44.12 C111.94 46.12 111.94 46.12 111.94 46.12 Z M140.94 87.12 C141.94 89.12 141.94 89.12 141.94 89.12 Z M150.94 110.12 C151.94 112.12 151.94 112.12 151.94 112.12 Z M150.94 114.12 C151.94 117.12 151.94 117.12 151.94 117.12 Z M153.94 131.12 C153.94 132.77 153.94 134.42 153.94 136.12 C154.27 136.12 154.6 136.12 154.94 136.12 C154.94 134.48 154.94 132.83 154.94 131.12 C154.61 131.12 154.28 131.12 153.94 131.12 Z M153.94 137.12 C153.94 141.09 153.94 145.04 153.94 149.12 C154.27 149.12 154.6 149.12 154.94 149.12 C154.94 145.16 154.94 141.21 154.94 137.12 C154.61 137.12 154.28 137.12 153.94 137.12 Z M153.94 163.12 C153.94 169.39 153.94 175.66 153.94 182.12 C154.27 182.12 154.6 182.12 154.94 182.12 C154.94 175.86 154.94 169.59 154.94 163.12 C154.61 163.12 154.28 163.12 153.94 163.12 Z M153.94 183.12 C154.94 187.12 154.94 187.12 154.94 187.12 Z M150.94 194.12 C151.94 196.12 151.94 196.12 151.94 196.12 Z M65.94 297.12 C65.94 300.12 65.94 300.12 65.94 300.12 Z M61.94 299.12 C62.94 302.12 62.94 302.12 62.94 302.12 Z M-39.06 310.12 C-39.06 310.45 -39.06 310.79 -39.06 311.12 C-37.08 311.12 -35.1 311.12 -33.06 311.12 C-33.06 310.8 -33.06 310.46 -33.06 310.12 C-35.04 310.12 -37.02 310.12 -39.06 310.12 Z " fill="#FBFBFB" transform="translate(640.0625,507.875)"/>
<path d="M0 0 C0.66 0.33 1.32 0.66 2 1 C2.59 3.65 2.74 6.29 3 9 C3.33 9 3.66 9 4 9 C4.72 13.53 5.13 17.88 5.13 22.47 C5.13 23.7 5.14 24.94 5.14 26.22 C5.14 27.54 5.13 28.86 5.13 30.22 C5.13 31.6 5.13 32.99 5.14 34.38 C5.14 37.27 5.14 40.17 5.13 43.06 C5.12 46.76 5.13 50.45 5.13 54.15 C5.14 57 5.14 59.86 5.13 62.72 C5.13 64.74 5.14 66.76 5.14 68.78 C5.14 70.02 5.13 71.26 5.13 72.53 C5.13 73.62 5.13 74.7 5.13 75.81 C4.99 79.26 4.54 82.59 4 86 C2.02 86.5 2.02 86.5 0 87 C-1.22 83.34 -1.14 79.97 -1.13 76.16 C-1.13 75.37 -1.13 74.57 -1.13 73.75 C-1.14 71.11 -1.14 68.48 -1.13 65.84 C-1.13 64.01 -1.13 62.18 -1.14 60.35 C-1.14 56.52 -1.14 52.68 -1.13 48.85 C-1.12 43.93 -1.13 39.01 -1.13 34.08 C-1.14 30.31 -1.14 26.53 -1.13 22.75 C-1.13 20.94 -1.13 19.12 -1.14 17.31 C-1.14 14.77 -1.13 12.24 -1.13 9.71 C-1.13 8.95 -1.13 8.2 -1.14 7.42 C-1.11 2.23 -1.11 2.23 0 0 Z M2 21 C2 22.65 2 24.3 2 26 C2.33 26 2.66 26 3 26 C3 24.35 3 22.7 3 21 C2.67 21 2.34 21 2 21 Z M2 27 C2 30.96 2 34.92 2 39 C2.33 39 2.66 39 3 39 C3 35.04 3 31.08 3 27 C2.67 27 2.34 27 2 27 Z M2 53 C2 59.27 2 65.54 2 72 C2.33 72 2.66 72 3 72 C3 65.73 3 59.46 3 53 C2.67 53 2.34 53 2 53 Z M2 73 C3 77 3 77 3 77 Z " fill="#8C8986" transform="translate(792,618)"/>
<path d="M0 0 C3.99 3.64 6.8 7.53 9.67 12.11 C10.87 14.13 10.87 14.13 13 15 C13 15.66 13 16.32 13 17 C13.99 17.33 14.98 17.66 16 18 C16.69 20.06 16.69 20.06 17 22 C17.6 22.04 18.2 22.08 18.81 22.12 C21 23 21 23 22.32 25.77 C26.33 33.47 34.73 38.02 42.25 41.87 C44 43 44 43 45.56 45.81 C45.71 46.53 45.85 47.26 46 48 C43.81 49.19 43.81 49.19 41 50 C37.45 48.21 34.61 45.92 31.69 43.25 C28.82 40.65 25.94 38.08 23 35.56 C10.83 24.92 10.83 24.92 7 19 C7 18.01 7 17.02 7 16 C6.34 16 5.68 16 5 16 C3.31 14.17 3.31 14.17 1.44 11.75 C0.82 10.96 0.2 10.17 -0.44 9.36 C-1.91 7.13 -2.72 5.64 -3 3 C-1.56 1.25 -1.56 1.25 0 0 Z " fill="#B3AFAC" transform="translate(83,739)"/>
<path d="M0 0 C5.47 4.13 8.66 8.06 10 15 C10.99 15 11.98 15 13 15 C14.34 16.99 15.68 18.99 17 21 C19.05 22.19 19.05 22.19 21 23 C23 26 23 26 23 29 C23.56 29.25 24.11 29.5 24.69 29.75 C27.42 31.23 29.68 32.93 32 35 C32 35.66 32 36.32 32 37 C34 38.02 36.01 39 38.07 39.89 C43.67 42.4 43.67 42.4 45.5 45.75 C45.75 46.86 45.75 46.86 46 48 C41.38 50.12 41.38 50.12 38 49 C38 48.34 38 47.68 38 47 C37.01 46.67 36.02 46.34 35 46 C33.33 44.33 31.67 42.67 30 41 C28.8 40.11 27.59 39.24 26.38 38.38 C18.1 32.27 11.21 24.86 5.57 16.29 C3.65 13.49 1.48 11.04 -0.84 8.57 C-2.21 6.71 -2.71 5.29 -3 3 C-1.56 1.25 -1.56 1.25 0 0 Z " fill="#B3AFAC" transform="translate(518,739)"/>
<path d="M0 0 C4.03 1.34 4.88 3.42 7 7 C7 7.66 7 8.32 7 9 C7.66 9 8.32 9 9 9 C9.23 9.72 9.45 10.44 9.69 11.19 C11.25 14.54 13.34 16.47 16 19 C16.33 19.66 16.66 20.32 17 21 C17.99 21.33 18.98 21.66 20 22 C20.69 24.06 20.69 24.06 21 26 C21.66 26 22.32 26 23 26 C24.66 27.71 24.66 27.71 26.5 29.94 C28.89 32.92 28.89 32.92 32 35 C32 35.66 32 36.32 32 37 C32.66 37 33.32 37 34 37 C34 37.66 34 38.32 34 39 C34.9 39.24 34.9 39.24 35.83 39.48 C41.02 41 44.02 42.2 47 47 C44.75 49.08 43.62 50 40.5 50 C37.21 48.69 35.92 46.92 34 44 C34 43.34 34 42.68 34 42 C33.14 41.78 32.28 41.57 31.4 41.34 C27.28 39.72 24.78 37.53 21.62 34.5 C21.06 33.96 20.49 33.43 19.9 32.87 C15.88 29.02 12.29 24.96 8.92 20.52 C6 16.69 2.88 13.04 -0.21 9.35 C-2 7 -2 7 -3 4 C-1.56 1.81 -1.56 1.81 0 0 Z " fill="#B3AFAC" transform="translate(953,739)"/>
<path d="M0 0 C7.09 10.63 4.3 29.66 4.26 41.81 C4.25 45.49 4.26 49.18 4.27 52.86 C4.29 84.56 4.29 84.56 0 91 C-0.98 75.8 -1.16 60.65 -1.13 45.43 C-1.12 41.54 -1.13 37.66 -1.14 33.78 C-1.14 31.27 -1.13 28.76 -1.13 26.25 C-1.13 25.12 -1.14 23.98 -1.14 22.8 C-1.12 15.16 -0.69 7.61 0 0 Z " fill="#393633" transform="translate(358,620)"/>
<path d="M0 0 C1.24 -0.01 2.48 -0.01 3.76 -0.02 C5.12 -0.02 6.47 -0.02 7.83 -0.02 C9.23 -0.03 10.63 -0.03 12.03 -0.03 C14.97 -0.04 17.91 -0.04 20.85 -0.04 C24.58 -0.04 28.32 -0.05 32.05 -0.07 C34.95 -0.08 37.84 -0.08 40.74 -0.08 C42.11 -0.08 43.49 -0.09 44.86 -0.1 C53.41 -0.14 61.48 0.43 69.86 2.15 C69.86 2.48 69.86 2.81 69.86 3.15 C57.28 5.89 44 5.33 31.2 5.33 C28.2 5.33 25.2 5.35 22.2 5.37 C9.95 5.4 -1.99 4.71 -14.14 3.15 C-9.33 0.57 -5.45 0.02 0 0 Z " fill="#100F0E" transform="translate(1047.138671875,817.854736328125)"/>
<path d="M0 0 C1.64 -0 1.64 -0 3.31 -0.01 C4.48 -0.01 5.65 -0.01 6.85 -0 C8.07 -0 9.29 -0.01 10.55 -0.01 C13.14 -0.01 15.72 -0.01 18.31 -0 C22.22 0 26.13 -0 30.04 -0.01 C64.6 -0.02 64.6 -0.02 69.32 3.13 C56.64 5.9 43.29 5.29 30.38 5.26 C27.33 5.25 24.28 5.26 21.22 5.27 C-4.84 5.28 -4.84 5.28 -14.68 3.13 C-10.06 0.05 -5.44 0 0 0 Z " fill="#11100F" transform="translate(612.675537109375,817.87060546875)"/>
<path d="M0 0 C1.87 -0 1.87 -0 3.78 -0 C7.08 -0 10.39 0 13.7 0.01 C17.02 0.01 20.34 0 23.67 -0 C26.24 -0 28.81 -0 31.38 0 C32.55 -0 33.73 -0 34.95 -0.01 C57.01 0.05 57.01 0.05 60.09 3.13 C47.24 4.9 34.6 5.45 21.64 5.39 C18.59 5.38 15.54 5.39 12.5 5.41 C0.56 5.41 -11.09 4.76 -22.91 3.13 C-16.36 -1.24 -7.6 -0.01 0 0 Z " fill="#11100F" transform="translate(185.9140625,817.8671875)"/>
<path d="M0 0 C0.33 0 0.66 0 1 0 C1.05 11.44 1.08 22.88 1.1 34.32 C1.11 39.63 1.13 44.94 1.15 50.25 C1.17 55.37 1.18 60.5 1.19 65.62 C1.19 67.58 1.2 69.53 1.21 71.49 C1.23 74.23 1.23 76.96 1.23 79.69 C1.23 80.51 1.24 81.33 1.25 82.17 C1.23 87.77 1.23 87.77 -1 90 C-4.6 82.79 -3.15 72.33 -3.13 64.47 C-3.13 63.07 -3.13 61.68 -3.14 60.28 C-3.14 57.36 -3.14 54.44 -3.13 51.53 C-3.12 47.81 -3.13 44.1 -3.13 40.39 C-3.14 37.51 -3.14 34.62 -3.13 31.74 C-3.13 30.37 -3.13 29 -3.14 27.63 C-3.16 6.33 -3.16 6.33 0 0 Z " fill="#2B2927" transform="translate(486,619)"/>
<path d="M0 0 C0.33 0 0.66 0 1 0 C1 29.37 1 58.74 1 89 C0.34 88.67 -0.32 88.34 -1 88 C-3.08 79.03 -3.3 69.82 -3.27 60.66 C-3.27 59.44 -3.27 58.23 -3.27 56.98 C-3.27 54.44 -3.27 51.9 -3.26 49.36 C-3.25 45.51 -3.26 41.66 -3.27 37.81 C-3.27 35.32 -3.27 32.83 -3.27 30.34 C-3.27 28.65 -3.27 28.65 -3.28 26.92 C-3.23 17.95 -2.85 8.56 0 0 Z " fill="#141312" transform="translate(921,620)"/>
<path d="M0 0 C0.66 0 1.32 0 2 0 C3.15 5.7 3.34 11.39 3.56 17.19 C3.6 18.26 3.65 19.32 3.69 20.43 C4.19 34.25 4.1 47.99 3.56 61.81 C3.52 62.83 3.48 63.85 3.44 64.91 C3.24 69.68 2.95 74.3 2 79 C-4.65 69.02 -1.15 47.53 -1.13 35.89 C-1.12 32.35 -1.13 28.81 -1.14 25.27 C-1.14 23 -1.13 20.73 -1.13 18.46 C-1.13 17.41 -1.14 16.36 -1.14 15.29 C-1.12 10.08 -0.91 5.13 0 0 Z " fill="#131211" transform="translate(1229,626)"/>
<path d="M0 0 C0.76 -0 1.51 -0.01 2.29 -0.01 C10.6 -0.03 18.88 0.1 27.18 0.57 C27.87 0.6 28.56 0.64 29.27 0.68 C34.61 1.02 39.76 1.81 44.94 3.12 C44.94 3.45 44.94 3.79 44.94 4.12 C-0.6 4.62 -0.6 4.62 -47.06 5.12 C-46.06 3.12 -46.06 3.12 -43.06 2.12 C-28.84 -0.19 -14.37 0.02 0 0 Z " fill="#181715" transform="translate(640.0625,507.875)"/>
<path d="M0 0 C0 0.33 0 0.66 0 1 C-45.54 1.5 -45.54 1.5 -92 2 C-91 0 -91 0 -89.35 -0.6 C-62.64 -6.03 -26.51 -6.41 0 0 Z " fill="#000000" transform="translate(250,511)"/>
<path d="M0 0 C0 0.33 0 0.66 0 1 C-44.55 1.5 -44.55 1.5 -90 2 C-90 1.34 -90 0.68 -90 0 C-64.23 -6.24 -25.64 -7.12 0 0 Z " fill="#000000" transform="translate(1120,511)"/>
<path d="M0 0 C0.33 0 0.66 0 1 0 C1 0.97 1 1.95 0.99 2.95 C0.97 12.12 0.96 21.29 0.95 30.46 C0.94 35.17 0.94 39.89 0.92 44.6 C0.91 49.14 0.91 53.69 0.91 58.23 C0.9 59.97 0.9 61.71 0.89 63.45 C0.89 65.87 0.89 68.3 0.89 70.73 C0.88 71.45 0.88 72.18 0.88 72.93 C0.59 76.25 0.59 76.25 2 79 C2.04 81.33 2.04 83.67 2 86 C1.01 86.5 1.01 86.5 0 87 C-1.5 79.69 -2.38 72.58 -2.62 65.12 C-2.66 64.13 -2.7 63.14 -2.74 62.12 C-3.22 47.98 -3.15 33.88 -2.62 19.75 C-2.59 18.81 -2.56 17.87 -2.53 16.9 C-2.28 11.04 -1.43 5.69 0 0 Z " fill="#171514" transform="translate(50,623)"/>
<path d="M0 0 C2.57 3.86 2.32 7.08 2.35 11.55 C2.36 12.43 2.38 13.3 2.39 14.2 C2.43 17.09 2.46 19.98 2.48 22.88 C2.51 24.88 2.53 26.89 2.56 28.89 C2.61 33.1 2.65 37.31 2.69 41.51 C2.74 46.91 2.8 52.31 2.88 57.71 C2.93 61.85 2.97 65.99 3.02 70.14 C3.04 72.13 3.06 74.12 3.09 76.11 C3.12 78.89 3.15 81.67 3.17 84.45 C3.18 85.27 3.19 86.1 3.21 86.95 C3.22 90.84 3.21 92.69 1 96 C-0.37 92.18 0.32 88.93 1 85 C0.34 84.67 -0.32 84.34 -1 84 C-1.02 73.34 -1.04 62.69 -1.05 52.03 C-1.06 47.08 -1.06 42.13 -1.08 37.19 C-1.09 32.41 -1.09 27.64 -1.09 22.87 C-1.1 21.04 -1.1 19.22 -1.11 17.4 C-1.11 14.85 -1.11 12.3 -1.11 9.75 C-1.12 8.99 -1.12 8.24 -1.12 7.45 C-1.11 2.23 -1.11 2.23 0 0 Z " fill="#B2AEAB" transform="translate(51,617)"/>
<path d="M0 0 C1.08 -0 1.08 -0 2.18 -0.01 C3.71 -0.01 5.24 -0 6.76 0 C9.06 0.02 11.35 0.01 13.65 -0.01 C22.16 -0.01 30.24 0.48 38.59 2.27 C35.46 5.4 31.88 5.22 27.57 5.36 C26.53 5.35 25.5 5.34 24.43 5.33 C22.72 5.32 22.72 5.32 20.97 5.3 C19.21 5.29 19.21 5.29 17.41 5.27 C15.06 5.24 12.71 5.22 10.36 5.2 C9.33 5.19 8.29 5.18 7.23 5.17 C4.48 5.15 4.48 5.15 1.59 6.27 C-0.26 6.36 -2.11 6.4 -3.97 6.39 C-4.94 6.39 -5.91 6.4 -6.91 6.4 C-9.41 6.27 -9.41 6.27 -11.41 5.27 C-11.41 4.28 -11.41 3.29 -11.41 2.27 C-7.74 -0.08 -4.21 -0.02 0 0 Z " fill="#B3AFAC" transform="translate(1025.40625,529.734375)"/>
<path d="M0 0 C0.72 -0 1.44 -0 2.18 -0 C3.7 0 5.22 0.01 6.74 0.03 C9.03 0.05 11.31 0.05 13.6 0.04 C22.47 0.06 30.89 0.69 39.63 2.36 C35.1 6.89 25.05 5.38 18.8 5.39 C16.4 5.38 13.99 5.36 11.58 5.33 C8.32 5.29 5.75 5.32 2.63 6.36 C0.8 6.51 -1.04 6.58 -2.87 6.61 C-3.83 6.64 -4.79 6.66 -5.78 6.69 C-8.74 6.32 -9.57 5.67 -11.37 3.36 C-7.86 -0 -4.63 -0.06 0 0 Z " fill="#B3AFAC" transform="translate(154.37109375,529.63671875)"/>
<path d="M0 0 C2.22 -0 4.44 -0.02 6.66 -0.04 C15.42 -0.07 23.75 0.53 32.39 2.19 C27.96 6.62 18.48 5.21 12.41 5.21 C9.86 5.2 7.3 5.19 4.75 5.15 C1.37 5.11 -1.38 5.11 -4.61 6.19 C-6.46 6.28 -8.32 6.32 -10.17 6.31 C-11.14 6.31 -12.12 6.32 -13.12 6.32 C-15.61 6.19 -15.61 6.19 -17.61 5.19 C-17.3 3.25 -17.3 3.25 -16.61 1.19 C-11.3 -0.58 -5.56 -0 0 0 Z " fill="#B3AFAC" transform="translate(596.611328125,529.814697265625)"/>
<path d="M0 0 C0.33 0 0.66 0 1 0 C1.72 4.53 2.13 8.88 2.13 13.47 C2.13 15.32 2.13 15.32 2.14 17.22 C2.14 18.54 2.13 19.86 2.13 21.22 C2.13 22.6 2.13 23.99 2.14 25.38 C2.14 28.27 2.14 31.17 2.13 34.06 C2.12 37.76 2.13 41.45 2.13 45.15 C2.14 48 2.14 50.86 2.13 53.72 C2.13 55.74 2.14 57.76 2.14 59.78 C2.14 61.02 2.13 62.26 2.13 63.53 C2.13 65.16 2.13 65.16 2.13 66.81 C1.99 70.26 1.54 73.59 1 77 C0.67 77 0.34 77 0 77 C-1.22 64.79 -1.15 52.59 -1.13 40.33 C-1.12 36.81 -1.13 33.29 -1.14 29.77 C-1.14 27.5 -1.13 25.23 -1.13 22.96 C-1.13 21.92 -1.14 20.88 -1.14 19.82 C-1.12 13.16 -0.71 6.62 0 0 Z " fill="#000000" transform="translate(795,627)"/>
<path d="M0 0 C0.33 0 0.66 0 1 0 C1.91 7.51 2.16 14.92 2.17 22.48 C2.17 23.65 2.17 24.82 2.18 26.03 C2.18 28.5 2.19 30.96 2.19 33.43 C2.19 37.16 2.21 40.89 2.22 44.62 C2.25 56.56 2.2 68.23 0 80 C-0.33 80 -0.66 80 -1 80 C-1.09 63.8 -0.82 47.61 -0.54 31.42 C-0.47 27.86 -0.42 24.31 -0.36 20.76 C-0.24 13.84 -0.12 6.92 0 0 Z " fill="#000000" transform="translate(360,628)"/>
<path d="M0 0 C0.81 1.69 0.81 1.69 1 4 C-0.6 5.86 -2.18 7.37 -4 9 C-5.36 10.32 -6.72 11.66 -8.06 13 C-8.75 13.68 -9.43 14.36 -10.14 15.07 C-12.16 17.1 -12.16 17.1 -14.31 19.94 C-16 22 -16 22 -19 23 C-19.66 22.67 -20.32 22.34 -21 22 C-20.72 18.48 -20.14 17.15 -17.67 14.54 C-16.71 13.72 -15.74 12.9 -14.75 12.06 C-10.73 8.57 -7.3 5.15 -4 1 C-2 0 -2 0 0 0 Z " fill="#B3AFAC" transform="translate(113,552)"/>
<path d="M0 0 C0.66 1.32 1.32 2.64 2 4 C-1.51 8.18 -5.09 12.18 -9 16 C-9.48 16.54 -9.97 17.08 -10.47 17.64 C-14.39 21.92 -14.39 21.92 -17.88 22.38 C-18.58 22.25 -19.28 22.13 -20 22 C-18.58 17.49 -16.36 15.26 -13 12 C-12.06 11.05 -11.11 10.1 -10.18 9.14 C-9.22 8.18 -8.27 7.21 -7.31 6.25 C-6.83 5.76 -6.34 5.26 -5.84 4.75 C-2.23 1.11 -2.23 1.11 0 0 Z " fill="#B3AFAC" transform="translate(982,552)"/>
<path d="M0 0 C0.66 1.32 1.32 2.64 2 4 C1.34 4.66 0.68 5.32 0 6 C-0.45 6.45 -0.9 6.91 -1.37 7.38 C-2.57 8.57 -3.77 9.75 -4.97 10.94 C-7.92 13.85 -10.75 16.68 -13.31 19.94 C-15 22 -15 22 -18 23 C-18.66 22.67 -19.32 22.34 -20 22 C-18.86 18.37 -17.4 16.17 -14.62 13.59 C-11.62 10.65 -8.94 7.39 -6.18 4.21 C-4.16 2.17 -2.63 1.07 0 0 Z " fill="#B3AFAC" transform="translate(547,552)"/>
<path d="M0 0 C0.86 0.01 1.72 0.02 2.6 0.03 C5.44 0.06 8.28 0.1 11.12 0.14 C13.09 0.17 15.06 0.19 17.03 0.21 C22.21 0.28 27.4 0.35 32.58 0.42 C37.87 0.49 43.16 0.55 48.45 0.62 C58.82 0.75 69.2 0.88 79.58 1.02 C79.58 1.35 79.58 1.68 79.58 2.02 C34.04 2.52 34.04 2.52 -12.42 3.02 C-10.19 -1.44 -4.34 -0.07 0 0 Z " fill="#4A4642" transform="translate(170.418701171875,509.978271484375)"/>
<path d="M0 0 C0.86 0.01 1.72 0.02 2.6 0.03 C5.45 0.06 8.29 0.1 11.14 0.14 C13.11 0.17 15.08 0.19 17.05 0.21 C22.24 0.28 27.43 0.35 32.63 0.42 C37.92 0.49 43.22 0.55 48.51 0.62 C58.91 0.75 69.3 0.88 79.69 1.02 C79.69 1.35 79.69 1.68 79.69 2.02 C35.14 2.52 35.14 2.52 -10.31 3.02 C-10.31 2.36 -10.31 1.7 -10.31 1.02 C-7.07 -0.59 -3.55 -0.06 0 0 Z " fill="#494541" transform="translate(1040.30517578125,509.978271484375)"/>
<path d="M0 0 C0.79 0.01 1.57 0.03 2.38 0.04 C3.55 0.05 3.55 0.05 4.75 0.06 C6.94 0.23 6.94 0.23 9.94 1.23 C9.94 2.22 9.94 3.21 9.94 4.23 C8.62 4.23 7.3 4.23 5.94 4.23 C6.27 4.89 6.6 5.55 6.94 6.23 C5.48 6.57 4.03 6.9 2.57 7.23 C1.35 7.51 1.35 7.51 0.11 7.79 C-2.06 8.23 -2.06 8.23 -4.06 8.23 C-4.18 5.36 -4.18 5.36 -4.06 2.23 C-2.06 0.23 -2.06 0.23 0 0 Z M-1.06 3.23 C-1.06 6.23 -1.06 6.23 -1.06 6.23 Z " fill="#989491" transform="translate(272.05859375,801.76953125)"/>
<path d="M0 0 C1.94 0.81 1.94 0.81 4 2 C5.24 5.73 4.78 8.18 4 12 C1.04 13.48 -1.74 13.06 -5 13 C-4.34 12.67 -3.68 12.34 -3 12 C-2.61 10.35 -2.29 8.67 -2 7 C-1.35 4.66 -0.68 2.33 0 0 Z " fill="#B3AFAC" transform="translate(63,589)"/>
<path d="M0 0 C0.66 0.66 1.32 1.32 2 2 C0.21 3.84 -1.58 5.67 -3.38 7.5 C-3.88 8.02 -4.39 8.55 -4.91 9.09 C-6.24 10.43 -7.62 11.72 -9 13 C-9.66 13 -10.32 13 -11 13 C-11.25 13.6 -11.5 14.2 -11.75 14.81 C-13.16 17.29 -14.65 18.43 -17 20 C-17.33 19.34 -17.66 18.68 -18 18 C-12.74 10.84 -7.16 5.26 0 0 Z " fill="#BBB7B5" transform="translate(972,544)"/>
<path d="M0 0 C0 2.31 0 4.62 0 7 C-3.18 8.4 -4.3 7.89 -7.69 6.69 C-11 5 -11 5 -12 3 C-8.66 -1.04 -4.88 -1.63 0 0 Z " fill="#9D9997" transform="translate(577,802)"/>
<path d="M0 0 C10.56 1.93 10.56 1.93 15 4 C14.01 4.5 14.01 4.5 13 5 C13 5.66 13 6.32 13 7 C9.39 8.2 6.79 8.41 3 8 C0.62 5.16 0 3.72 0 0 Z " fill="#A5A19E" transform="translate(1137,520)"/>
<path d="M0 0 C1.58 0.28 3.17 0.58 4.75 0.88 C6.07 1.12 6.07 1.12 7.42 1.37 C9.87 1.97 11.81 2.78 14 4 C13.01 4.5 13.01 4.5 12 5 C12 5.66 12 6.32 12 7 C8.79 8.61 5.56 8.06 2 8 C0.24 4.91 0 3.77 0 0 Z " fill="#AAA6A3" transform="translate(702,520)"/>
<path d="M0 0 C1.59 0.26 3.17 0.53 4.75 0.81 C5.63 0.96 6.51 1.11 7.42 1.27 C10.19 2.05 11.83 3.15 14 5 C13.34 5 12.68 5 12 5 C12 5.66 12 6.32 12 7 C8.79 8.61 5.56 8.06 2 8 C0.24 4.91 0 3.77 0 0 Z " fill="#AAA6A3" transform="translate(267,520)"/>
<path d="M0 0 C2.08 2.7 1.99 4.11 1.75 7.56 C1 11 1 11 -1 14 C-4.12 9.6 -5.04 5.21 -6 0 C-3 -1 -3 -1 0 0 Z " fill="#B8B4B2" transform="translate(501,729)"/>
<path d="M0 0 C2.5 2 2.5 2 4 4 C2.35 4 0.7 4 -1 4 C-0.34 4.66 0.32 5.32 1 6 C-0.05 6.12 -1.1 6.25 -2.19 6.38 C-5.46 6.91 -8.01 7.64 -11 9 C-11.36 3.67 -11.36 3.67 -10 1.12 C-6.8 -0.68 -3.53 -0.67 0 0 Z M-8 3 C-8 6 -8 6 -8 6 Z " fill="#999591" transform="translate(1149,802)"/>
<path d="M0 0 C0 0.66 0 1.32 0 2 C0.99 2 1.98 2 3 2 C3 2.66 3 3.32 3 4 C1.68 4 0.36 4 -1 4 C-0.67 4.66 -0.34 5.32 0 6 C-0.94 6.2 -0.94 6.2 -1.9 6.4 C-3.12 6.67 -3.12 6.67 -4.38 6.94 C-5.19 7.11 -6 7.29 -6.84 7.46 C-9.03 7.92 -9.03 7.92 -11 9 C-11.36 3.67 -11.36 3.67 -10 1.12 C-6.75 -0.7 -3.69 -0.18 0 0 Z M-8 3 C-8 6 -8 6 -8 6 Z " fill="#8E8A87" transform="translate(714,802)"/>
<path d="M0 0 C-0.96 3.56 -1.69 4.79 -4.81 6.88 C-8.17 8.06 -9.67 8.08 -13 7 C-12.94 5.25 -12.94 5.25 -12 3 C-5.15 -1.87 -5.15 -1.87 0 0 Z " fill="#B3AFAC" transform="translate(726,781)"/>
<path d="M0 0 C0.33 0 0.66 0 1 0 C1.25 5.62 1.25 5.62 -1 9 C-4.34 10.05 -6.69 10.1 -10 9 C-10 8.34 -10 7.68 -10 7 C-10.99 6.67 -11.98 6.34 -13 6 C-11.4 5.33 -9.79 4.66 -8.19 4 C-6.85 3.44 -6.85 3.44 -5.48 2.88 C-3 2 -3 2 0 2 C0 1.34 0 0.68 0 0 Z " fill="#878380" transform="translate(1011,519)"/>
<path d="M0 0 C2.12 0.38 2.12 0.38 4 1 C4 1.66 4 2.32 4 3 C4.66 3.33 5.32 3.66 6 4 C5.53 8.06 5.12 11.47 3 15 C1.49 12.15 0.37 9.32 -0.62 6.25 C-0.89 5.45 -1.15 4.65 -1.41 3.83 C-1.61 3.22 -1.8 2.62 -2 2 C-1.34 1.34 -0.68 0.68 0 0 Z " fill="#B4B0AD" transform="translate(62,728)"/>
<path d="M0 0 C0.46 0.93 0.46 0.93 0.93 1.88 C1.96 3.99 1.96 3.99 3.12 5.88 C4.31 8.75 4.33 10.92 4 14 C2.75 15.94 2.75 15.94 1 17 C-1.19 16.69 -1.19 16.69 -3 16 C-2.31 10.58 -1.24 5.32 0 0 Z " fill="#ADA9A6" transform="translate(934,585)"/>
<path d="M0 0 C0 2.31 0 4.62 0 7 C-0.66 6.67 -1.32 6.34 -2 6 C-2.99 6.5 -2.99 6.5 -4 7 C-6.02 6.39 -8.02 5.73 -10 5 C-10 4.34 -10 3.68 -10 3 C-10.66 2.67 -11.32 2.34 -12 2 C-10.28 -0.08 -9.15 -0.95 -6.56 -1.81 C-3.68 -2.02 -2.41 -1.52 0 0 Z " fill="#A19D9A" transform="translate(142,803)"/>
<path d="M0 0 C0.54 0.25 1.07 0.5 1.62 0.75 C1.35 4.11 1.04 5.39 -1.56 7.62 C-4.96 8.98 -6.88 8.64 -10.38 7.75 C-8.77 3.27 -4.98 -0.52 0 0 Z " fill="#B3AFAC" transform="translate(1158.375,780.25)"/>
<path d="M0 0 C2.87 1.43 3.6 3.14 5 6 C5.19 9.31 5.19 9.31 5 12 C-1.88 11.12 -1.88 11.12 -3 10 C-3.31 6.53 -3.39 4.61 -1.5 1.62 C-1.01 1.09 -0.51 0.55 0 0 Z " fill="#7E7B78" transform="translate(1214,590)"/>
<path d="M0 0 C0.66 0.33 1.32 0.66 2 1 C1.67 2.98 1.34 4.96 1 7 C-5.62 9.12 -5.62 9.12 -9 8 C-9 7.34 -9 6.68 -9 6 C-9.99 5.67 -10.98 5.34 -12 5 C-10.05 4.14 -8.09 3.28 -6.12 2.44 C-5.03 1.96 -3.94 1.49 -2.82 1 C-1.89 0.67 -0.96 0.34 0 0 Z " fill="#8D8A87" transform="translate(575,520)"/>
<path d="M0 0 C-0.19 2.31 -0.19 2.31 -1 5 C-3.25 6.88 -3.25 6.88 -6 8 C-8.81 7.69 -8.81 7.69 -11 7 C-11 6.34 -11 5.68 -11 5 C-11.99 4.67 -12.98 4.34 -14 4 C-12.93 3.55 -11.85 3.09 -10.75 2.62 C-8.67 1.74 -6.73 0.85 -4.75 -0.25 C-3 -1 -3 -1 0 0 Z " fill="#B3AFAC" transform="translate(142,521)"/>
<path d="M0 0 C0.62 1.81 0.62 1.81 1 4 C-1.25 7.37 -2.19 7.94 -6 9 C-8.81 8.62 -8.81 8.62 -11 8 C-10.02 4.36 -9.34 3.21 -6.06 1.19 C-3 0 -3 0 0 0 Z " fill="#B3AFAC" transform="translate(289,780)"/>
<path d="M0 0 C0.6 0.23 1.2 0.45 1.81 0.69 C1.32 6.74 1.32 6.74 0.81 8.69 C-2.19 10.69 -2.19 10.69 -4.38 10.31 C-4.97 10.11 -5.57 9.9 -6.19 9.69 C-5.58 3.29 -5.58 3.29 -3.88 0.69 C-2.19 -0.31 -2.19 -0.31 0 0 Z " fill="#B3AFAC" transform="translate(1196.1875,739.3125)"/>
<path d="M0 0 C1.88 1.5 1.88 1.5 2.69 4.94 C2.88 8.5 2.88 8.5 1.88 11.5 C1.22 11.5 0.55 11.5 -0.12 11.5 C-0.46 12.16 -0.78 12.82 -1.12 13.5 C-2.45 9.21 -3.76 4.92 -5.12 0.5 C-2.12 -0.5 -2.12 -0.5 0 0 Z " fill="#AFABA8" transform="translate(935.125,728.5)"/>
<path d="M0 0 C1.32 0.66 2.64 1.32 4 2 C3.4 7.41 3.4 7.41 1.69 9.94 C0 11 0 11 -2.19 10.69 C-2.79 10.46 -3.38 10.23 -4 10 C-4.25 7.25 -4.25 7.25 -4 4 C-2 1.62 -2 1.62 0 0 Z " fill="#B3AFAC" transform="translate(759,739)"/>
<path d="M0 0 C3.88 1.75 3.88 1.75 5 4 C3.79 7.08 2.48 10.04 1 13 C-1 13 -1 13 -2.69 11.44 C-4.56 7.96 -3.97 5.75 -3 2 C-2.01 1.34 -1.02 0.68 0 0 Z M-1 5 C0 7 0 7 0 7 Z " fill="#97938F" transform="translate(1215,728)"/>
<path d="M0 0 C1.98 0.99 3.96 1.98 6 3 C6 3.66 6 4.32 6 5 C6.66 5 7.32 5 8 5 C8.33 6.98 8.66 8.96 9 11 C8.01 11.33 7.02 11.66 6 12 C6 11.34 6 10.68 6 10 C5.24 9.79 4.47 9.59 3.69 9.38 C0.18 7.58 -0.53 5.57 -2 2 C-1.34 1.34 -0.68 0.68 0 0 Z " fill="#B3AFAC" transform="translate(742,564)"/>
<path d="M0 0 C-1.27 3.91 -2.43 5.9 -6 8 C-8.25 8.69 -8.25 8.69 -10 9 C-10.75 7.31 -10.75 7.31 -11 5 C-7.56 -0.1 -5.96 -1.41 0 0 Z " fill="#B3AFAC" transform="translate(740,768)"/>
<path d="M0 0 C1.65 0 3.3 0 5 0 C5.36 1.46 5.71 2.92 6.06 4.38 C6.36 5.59 6.36 5.59 6.66 6.84 C7 9 7 9 6 11 C0.12 10.12 0.12 10.12 -1 9 C-1.24 2.47 -1.24 2.47 0 0 Z " fill="#9A9693" transform="translate(342,591)"/>
<path d="M0 0 C1.98 0.66 3.96 1.32 6 2 C6.25 7.62 6.25 7.62 4 11 C2.12 10.75 2.12 10.75 0 10 C-1.84 7.55 -2.04 6.37 -1.69 3.31 C-1 1 -1 1 0 0 Z " fill="#B3AFAC" transform="translate(1192,580)"/>
<path d="M0 0 C0.33 1.98 0.66 3.96 1 6 C-2.73 8.03 -4.67 9 -9 9 C-9.33 8.01 -9.66 7.02 -10 6 C-4.15 0 -4.15 0 0 0 Z " fill="#B3AFAC" transform="translate(129,540)"/>
<path d="M0 0 C1.32 0 2.64 0 4 0 C6.79 2.79 6.66 5.15 7 9 C6.67 9.66 6.34 10.32 6 11 C0.12 10.12 0.12 10.12 -1 9 C-1.24 2.47 -1.24 2.47 0 0 Z M4 4 C5 6 5 6 5 6 Z " fill="#A39F9C" transform="translate(777,591)"/>
<path d="M0 0 C1.32 0.66 2.64 1.32 4 2 C3.25 9.75 3.25 9.75 1 12 C-1.48 11.01 -1.48 11.01 -4 10 C-4.25 7.25 -4.25 7.25 -4 4 C-2 1.62 -2 1.62 0 0 Z " fill="#8C8885" transform="translate(780,728)"/>
<path d="M0 0 C0.33 1.98 0.66 3.96 1 6 C-2.73 8.03 -4.67 9 -9 9 C-8.81 6.19 -8.81 6.19 -8 3 C-5.11 0.72 -3.7 0 0 0 Z " fill="#B3AFAC" transform="translate(564,540)"/>
<path d="M0 0 C1.32 0.33 2.64 0.66 4 1 C4.37 6.42 4.37 6.42 2.5 9.38 C2 9.91 1.51 10.45 1 11 C-0.32 10.67 -1.64 10.34 -3 10 C-3.37 4.58 -3.37 4.58 -1.5 1.62 C-1 1.09 -0.51 0.55 0 0 Z " fill="#B3AFAC" transform="translate(323,739)"/>
<path d="M0 0 C1.98 0.99 3.96 1.98 6 3 C5.67 5.31 5.34 7.62 5 10 C1 10 1 10 -1 9 C-1.75 5.56 -1.75 5.56 -2 2 C-1.34 1.34 -0.68 0.68 0 0 Z " fill="#B3AFAC" transform="translate(757,580)"/>
<path d="M0 0 C5.75 0.75 5.75 0.75 8 3 C8 3.99 8 4.98 8 6 C8.66 6.33 9.32 6.66 10 7 C9.01 7.99 8.02 8.98 7 10 C4.36 8.35 1.72 6.7 -1 5 C-0.67 3.35 -0.34 1.7 0 0 Z " fill="#B3AFAC" transform="translate(1165,553)"/>
<path d="M0 0 C0.33 1.98 0.66 3.96 1 6 C-4.42 9.08 -4.42 9.08 -7.38 8.69 C-7.91 8.46 -8.45 8.23 -9 8 C-8.81 5.69 -8.81 5.69 -8 3 C-5.1 0.79 -3.67 0 0 0 Z " fill="#B3AFAC" transform="translate(999,540)"/>
<path d="M0 0 C0.54 0.25 1.07 0.5 1.62 0.75 C0.37 4.62 -0.74 6.78 -4.38 8.75 C-7.12 8.94 -7.12 8.94 -9.38 8.75 C-9.25 6.5 -9.25 6.5 -8.38 3.75 C-3.5 -0.37 -3.5 -0.37 0 0 Z " fill="#B3AFAC" transform="translate(1173.375,767.25)"/>
<path d="M0 0 C2.12 0.94 2.12 0.94 4 2 C3.63 4.7 3.22 5.8 1.19 7.69 C-0.92 8.95 -2.59 9.57 -5 10 C-5.75 8.31 -5.75 8.31 -6 6 C-4.21 3.35 -2.88 1.44 0 0 Z " fill="#B3AFAC" transform="translate(300,767)"/>
<path d="M0 0 C3.27 0.97 4.75 1.66 6.81 4.44 C8 7 8 7 8 10 C7.01 10.33 6.02 10.66 5 11 C5 10.34 5 9.68 5 9 C4.22 8.77 3.43 8.55 2.62 8.31 C0 7 0 7 -1.31 4.38 C-1.54 3.59 -1.77 2.81 -2 2 C-1.34 1.34 -0.68 0.68 0 0 Z " fill="#B3AFAC" transform="translate(308,565)"/>
<path d="M0 0 C3.12 -0.19 3.12 -0.19 6 0 C5.14 8.57 5.14 8.57 3 12 C2.01 11.67 1.02 11.34 0 11 C0 10.34 0 9.68 0 9 C-0.66 9 -1.32 9 -2 9 C-2.25 3.38 -2.25 3.38 0 0 Z M2 2 C1.67 2.66 1.34 3.32 1 4 C1.99 3.67 2.98 3.34 4 3 C3.34 2.67 2.68 2.34 2 2 Z M1 7 C1.33 7.99 1.66 8.98 2 10 C2 9.01 2 8.02 2 7 C1.67 7 1.34 7 1 7 Z " fill="#65625F" transform="translate(343,729)"/>
<path d="M0 0 C2.97 1.12 5.33 2.22 8 4 C8.19 7.12 8.19 7.12 8 10 C7.01 10.33 6.02 10.66 5 11 C2.04 8.19 -0.44 5.82 -2 2 C-1.34 1.34 -0.68 0.68 0 0 Z " fill="#B3AFAC" transform="translate(1178,565)"/>
<path d="M0 0 C3.08 1.65 4.02 3.29 5.56 6.38 C4.57 7.37 3.58 8.36 2.56 9.38 C1.39 8.64 0.22 7.89 -0.94 7.12 C-1.91 6.5 -1.91 6.5 -2.91 5.86 C-3.41 5.37 -3.92 4.88 -4.44 4.38 C-4.44 3.05 -4.44 1.74 -4.44 0.38 C-2.44 -0.62 -2.44 -0.62 0 0 Z " fill="#B3AFAC" transform="translate(298.4375,553.625)"/>
<path d="M0 0 C2.88 0.56 2.88 0.56 6 2 C7.38 5.62 7.38 5.62 8 9 C3.78 8.52 1.2 7.83 -2 5 C-1.12 1.12 -1.12 1.12 0 0 Z " fill="#B3AFAC" transform="translate(731,553)"/>
<path d="M0 0 C2.01 0.29 4.01 0.62 6 1 C5.67 3.97 5.34 6.94 5 10 C2.52 9.01 2.52 9.01 0 8 C-0.38 5.67 -0.71 3.34 -1 1 C-0.67 0.67 -0.34 0.34 0 0 Z " fill="#B3AFAC" transform="translate(321,581)"/>
<path d="M0 0 C0.33 0.99 0.66 1.98 1 3 C-0.4 5.26 -2.2 7.02 -4 9 C-5.65 8.67 -7.3 8.34 -9 8 C-7.39 3.03 -5.53 0 0 0 Z " fill="#B3AFAC" transform="translate(751,755)"/>
<path d="M0 0 C1 0.16 1.99 0.33 3.02 0.49 C6.92 1.05 10.74 1.11 14.68 1.1 C15.38 1.1 16.08 1.09 16.81 1.09 C19.02 1.09 21.23 1.08 23.44 1.06 C24.95 1.06 26.46 1.05 27.97 1.05 C31.64 1.04 35.32 1.02 39 1 C39 1.33 39 1.66 39 2 C38.16 2.03 37.32 2.05 36.46 2.08 C33.36 2.17 30.25 2.27 27.15 2.37 C25.14 2.44 23.13 2.5 21.13 2.56 C19.24 2.62 19.24 2.62 17.32 2.68 C16.16 2.72 15 2.76 13.8 2.79 C11.05 2.82 11.05 2.82 9 4 C5.5 4.19 5.5 4.19 2 4 C1.34 3.34 0.68 2.68 0 2 C0 1.34 0 0.68 0 0 Z " fill="#B3AFAC" transform="translate(1027,511)"/>
<path d="M0 0 C1.75 1.81 1.75 1.81 3 4 C2.67 4.99 2.34 5.98 2 7 C-4.62 7.25 -4.62 7.25 -8 5 C-7 2 -7 2 -5.12 0.81 C-3 0 -3 0 0 0 Z " fill="#ABA7A3" transform="translate(1157,541)"/>
<path d="M0 0 C0.9 0.31 0.9 0.31 1.81 0.62 C-0.33 6.72 -0.33 6.72 -3.19 8.62 C-5.88 8.31 -5.88 8.31 -8.19 7.62 C-4.36 -0.75 -4.36 -0.75 0 0 Z " fill="#B3AFAC" transform="translate(1185.1875,755.375)"/>
<path d="M0 0 C1.09 0 1.09 0 2.19 0 C4.49 0.01 6.78 0.02 9.07 0.04 C10.63 0.04 12.2 0.04 13.76 0.05 C17.57 0.06 21.38 0.08 25.2 0.1 C25.2 0.43 25.2 0.76 25.2 1.1 C23.99 1.14 23.99 1.14 22.77 1.17 C19.1 1.29 15.43 1.41 11.76 1.54 C10.5 1.57 9.24 1.61 7.94 1.65 C2.56 1.84 -2.75 2.03 -8.09 2.76 C-9.32 2.87 -10.54 2.98 -11.8 3.1 C-12.46 2.44 -13.12 1.78 -13.8 1.1 C-9.17 0.19 -4.7 -0.04 0 0 Z " fill="#B5B2AF" transform="translate(605.8046875,511.90234375)"/>
<path d="M0 0 C0.56 0.23 1.11 0.45 1.69 0.69 C2.02 2.67 2.35 4.65 2.69 6.69 C-0.06 6.94 -0.06 6.94 -3.31 6.69 C-5.69 4.69 -5.69 4.69 -7.31 2.69 C-2.88 -0.39 -2.88 -0.39 0 0 Z " fill="#A39F9C" transform="translate(285.3125,541.3125)"/>
<path d="M0 0 C0.99 0.33 1.98 0.66 3 1 C1.38 6.75 1.38 6.75 -2 9 C-4.19 8.62 -4.19 8.62 -6 8 C-4.75 4.15 -3.61 1.97 0 0 Z " fill="#B3AFAC" transform="translate(313,755)"/>
<path d="M0 0 C0.99 0.33 1.98 0.66 3 1 C4.19 3.56 4.19 3.56 5 6 C4 7 4 7 1.12 7.31 C-2 7 -2 7 -3.88 5 C-4.25 4.34 -4.62 3.68 -5 3 C-2.69 1.44 -2.69 1.44 0 0 Z " fill="#A9A5A2" transform="translate(719,541)"/>
<path d="M0 0 C1.02 0 1.02 0 2.07 0 C4.24 0.01 6.41 0.02 8.58 0.04 C10.05 0.04 11.53 0.04 13 0.05 C16.61 0.06 20.22 0.08 23.83 0.1 C23.83 0.43 23.83 0.76 23.83 1.1 C23.05 1.12 22.28 1.15 21.48 1.17 C17.93 1.29 14.38 1.41 10.83 1.54 C9 1.59 9 1.59 7.13 1.65 C0.97 1.87 -5.07 2.19 -11.17 3.1 C-11.17 2.44 -11.17 1.78 -11.17 1.1 C-7.44 -0.09 -3.9 -0.02 0 0 Z " fill="#B4B0AD" transform="translate(171.171875,511.90234375)"/>
<path d="M0 0 C0.66 0.33 1.32 0.66 2 1 C2 3.31 2 5.62 2 8 C0.19 8.69 0.19 8.69 -2 9 C-3.75 7.56 -3.75 7.56 -5 6 C-2.25 1.12 -2.25 1.12 0 0 Z " fill="#B3AFAC" transform="translate(955,581)"/>
<path d="M0 0 C0.66 0.33 1.32 0.66 2 1 C2 2.98 2 4.96 2 7 C0.02 7.99 0.02 7.99 -2 9 C-2.99 8.01 -3.98 7.02 -5 6 C-2.25 1.12 -2.25 1.12 0 0 Z " fill="#B3AFAC" transform="translate(520,581)"/>
<path d="M0 0 C0 5.28 0 10.56 0 16 C-3.15 11.8 -3.36 11.15 -3.19 6.25 C-3.16 5.27 -3.13 4.28 -3.11 3.27 C-3.07 2.52 -3.04 1.77 -3 1 C-1 0 -1 0 0 0 Z " fill="#B3AFAC" transform="translate(73,683)"/>
<path d="M0 0 C1.56 1.06 1.56 1.06 3 3 C2.69 6.69 2.69 6.69 2 10 C0.35 10.66 -1.3 11.32 -3 12 C-2.69 10.56 -2.38 9.12 -2.06 7.69 C-1.89 6.89 -1.71 6.09 -1.54 5.26 C-1 3 -1 3 0 0 Z " fill="#3F3C38" transform="translate(498,589)"/>
<path d="M0 0 C3.41 1.2 5.56 2.33 8 5 C8.66 5.33 9.32 5.66 10 6 C10 6.99 10 7.98 10 9 C10.99 8.67 11.98 8.34 13 8 C13.33 8.99 13.66 9.98 14 11 C12.68 11.33 11.36 11.66 10 12 C5 6.25 5 6.25 5 4 C4.36 3.9 3.72 3.79 3.06 3.69 C2.38 3.46 1.7 3.23 1 3 C0.67 2.01 0.34 1.02 0 0 Z " fill="#A39F9B" transform="translate(306,545)"/>
<path d="M0 0 C0.66 0.66 1.32 1.32 2 2 C1.01 3.49 1.01 3.49 0 5 C-0.66 5 -1.32 5 -2 5 C-2.33 5.99 -2.66 6.98 -3 8 C-5.07 9.39 -5.07 9.39 -7.56 10.69 C-8.8 11.34 -8.8 11.34 -10.07 12.01 C-10.7 12.34 -11.34 12.66 -12 13 C-10.45 9.12 -8 6.97 -4.88 4.25 C-3.96 3.45 -3.05 2.65 -2.12 1.83 C-1.07 0.92 -1.07 0.92 0 0 Z " fill="#A8A5A2" transform="translate(102,543)"/>
<path d="M0 0 C0.99 0.33 1.98 0.66 3 1 C2.01 2.49 2.01 2.49 1 4 C0.34 4 -0.32 4 -1 4 C-1.33 4.99 -1.66 5.98 -2 7 C-4.07 8.39 -4.07 8.39 -6.56 9.69 C-7.8 10.34 -7.8 10.34 -9.07 11.01 C-9.7 11.34 -10.34 11.66 -11 12 C-9.5 8.33 -7.36 6.31 -4.38 3.75 C-3.15 2.69 -3.15 2.69 -1.9 1.61 C-1.27 1.08 -0.65 0.55 0 0 Z " fill="#ABA7A4" transform="translate(536,544)"/>
<path d="M0 0 C0.99 0 1.98 0 3 0 C3 2.31 3 4.62 3 7 C2.01 7.33 1.02 7.66 0 8 C-0.99 7.34 -1.98 6.68 -3 6 C-1.12 1.12 -1.12 1.12 0 0 Z " fill="#B3AFAC" transform="translate(83,582)"/>
<path d="M0 0 C2.38 -0.12 2.38 -0.12 5 0 C7 2 7 2 7 6 C2.54 5.01 2.54 5.01 -2 4 C-1.34 2.68 -0.68 1.36 0 0 Z " fill="#2D2B28" transform="translate(1004,804)"/>
<path d="M0 0 C1.49 0.99 1.49 0.99 3 2 C3.69 5.62 3.69 5.62 4 9 C2.35 8.67 0.7 8.34 -1 8 C-1.04 5.67 -1.04 3.33 -1 1 C-0.67 0.67 -0.34 0.34 0 0 Z " fill="#B3AFAC" transform="translate(506,713)"/>
<path d="M0 0 C0.29 0.6 0.58 1.2 0.88 1.81 C2.05 4.19 2.05 4.19 4 7 C4.56 13.28 4.56 13.28 2.5 15.94 C2 16.29 1.51 16.64 1 17 C0.01 16.67 -0.98 16.34 -2 16 C-1.5 15.47 -1 14.94 -0.48 14.39 C1.48 11.23 1.12 9.4 0.69 5.75 C0.57 4.67 0.45 3.59 0.32 2.48 C0.22 1.66 0.11 0.84 0 0 Z " fill="#B9B5B2" transform="translate(499,585)"/>
<path d="M0 0 C1.65 0 3.3 0 5 0 C5.66 1.65 6.32 3.3 7 5 C3.23 6.26 1.63 5.37 -2 4 C-1.34 2.68 -0.68 1.36 0 0 Z " fill="#282624" transform="translate(569,804)"/>
<path d="M0 0 C0 1.98 0 3.96 0 6 C-0.4 5.5 -0.8 5 -1.21 4.48 C-2.9 2.77 -2.9 2.77 -5.26 2.93 C-6.06 3.05 -6.86 3.18 -7.69 3.31 C-8.5 3.43 -9.3 3.55 -10.14 3.68 C-10.75 3.78 -11.37 3.89 -12 4 C-11.67 3.01 -11.34 2.02 -11 1 C-7.09 -0.48 -4.01 -1.6 0 0 Z " fill="#A29E9B" transform="translate(1012,802)"/>
<path d="M0 0 C3.94 3.32 3.94 3.32 4.25 6.75 C4.17 7.49 4.09 8.24 4 9 C2.68 9 1.36 9 0 9 C-1.12 2.25 -1.12 2.25 0 0 Z " fill="#B3AFAC" transform="translate(941,713)"/>
<path d="M0 0 C0.33 0 0.66 0 1 0 C1 6.27 1 12.54 1 19 C-2.32 14.58 -2.3 13.28 -2 8 C-1.34 8 -0.68 8 0 8 C0 5.36 0 2.72 0 0 Z " fill="#B3AFAC" transform="translate(507,679)"/>
<path d="M0 0 C1.63 0.28 3.25 0.58 4.88 0.88 C5.78 1.04 6.68 1.2 7.62 1.37 C10 2 10 2 12 4 C8.7 4.33 5.4 4.66 2 5 C2 4.34 2 3.68 2 3 C1.34 3 0.68 3 0 3 C0 2.01 0 1.02 0 0 Z " fill="#2D2A28" transform="translate(1140,521)"/>
<path d="M0 0 C2.41 2.5 3 3.59 3 7.12 C2 10 2 10 -0.56 11.38 C-1.37 11.58 -2.17 11.79 -3 12 C-2.26 7.92 -1.17 3.98 0 0 Z " fill="#3D3A37" transform="translate(63,589)"/>
<path d="M0 0 C1.81 0.45 3.63 0.91 5.44 1.38 C6.45 1.63 7.46 1.89 8.5 2.15 C11 3 11 3 12 5 C8.7 5.33 5.4 5.66 2 6 C2 5.01 2 4.02 2 3 C1.34 3 0.68 3 0 3 C0 2.01 0 1.02 0 0 Z " fill="#2A2725" transform="translate(704,520)"/>
<path d="M0 0 C1.63 0.45 3.25 0.91 4.88 1.38 C5.78 1.63 6.68 1.89 7.62 2.15 C10 3 10 3 12 5 C8.7 5.33 5.4 5.66 2 6 C2 5.01 2 4.02 2 3 C1.34 3 0.68 3 0 3 C0 2.01 0 1.02 0 0 Z " fill="#2C2927" transform="translate(269,520)"/>
<path d="M0 0 C2.44 0.75 2.44 0.75 5 2 C5.94 3.81 5.94 3.81 6 6 C5.06 8.75 5.06 8.75 4 11 C1.69 8.69 1.5 7.52 0.88 4.38 C0.71 3.56 0.54 2.74 0.37 1.9 C0.25 1.27 0.12 0.65 0 0 Z " fill="#2F2D2A" transform="translate(495,729)"/>
<path d="M0 0 C2.44 0.75 2.44 0.75 5 2 C5.94 3.81 5.94 3.81 6 6 C5.06 8.75 5.06 8.75 4 11 C1.54 7.31 0.99 4.3 0 0 Z " fill="#2C2A27" transform="translate(930,729)"/>
<path d="M0 0 C0.66 0 1.32 0 2 0 C1.67 6.93 1.34 13.86 1 21 C0.67 21 0.34 21 0 21 C-0.2 17.88 -0.38 14.75 -0.56 11.62 C-0.62 10.74 -0.67 9.85 -0.73 8.93 C-0.78 8.08 -0.83 7.23 -0.88 6.35 C-0.93 5.57 -0.97 4.78 -1.02 3.97 C-1 2 -1 2 0 0 Z " fill="#44403C" transform="translate(358,690)"/>
<path d="M0 0 C0.99 0.33 1.98 0.66 3 1 C2.75 4.38 2.75 4.38 2 8 C-0.06 9.44 -0.06 9.44 -2 10 C-1.54 6.53 -1.11 3.33 0 0 Z " fill="#383532" transform="translate(933,591)"/>
<path d="M0 0 C1.94 0.25 1.94 0.25 4 1 C4.66 1.99 5.32 2.98 6 4 C3.03 4.66 0.06 5.32 -3 6 C-1.12 1.12 -1.12 1.12 0 0 Z " fill="#2B2927" transform="translate(273,804)"/>
<path d="M0 0 C2.44 0.81 2.44 0.81 5 2 C6.21 5.62 5.54 6.64 4 10 C1.17 6.8 0.48 4.22 0 0 Z " fill="#3D3A37" transform="translate(60,729)"/>
<path d="M0 0 C0.66 0 1.32 0 2 0 C4.29 3.44 4.18 4.99 4 9 C2.68 8.67 1.36 8.34 0 8 C0 5.36 0 2.72 0 0 Z " fill="#B3AFAC" transform="translate(70,713)"/>
<path d="M0 0 C2.92 1.07 4.78 1.78 7 4 C5.36 4.22 5.36 4.22 3.69 4.44 C0.07 4.88 0.07 4.88 -3 6 C-1.12 1.12 -1.12 1.12 0 0 Z " fill="#2A2826" transform="translate(1143,804)"/>
<path d="M0 0 C4.88 1.75 4.88 1.75 6 4 C3.03 4.66 0.06 5.32 -3 6 C-1.12 1.12 -1.12 1.12 0 0 Z " fill="#282623" transform="translate(708,804)"/>
<path d="M0 0 C2.97 0.5 2.97 0.5 6 1 C6 2.65 6 4.3 6 6 C3.36 5.34 0.72 4.68 -2 4 C-1.34 2.68 -0.68 1.36 0 0 Z " fill="#282623" transform="translate(134,804)"/>
<path d="M0 0 C2.76 2.76 2.58 5.21 3 9 C2.01 9.5 2.01 9.5 1 10 C-0.32 8.68 -1.64 7.36 -3 6 C-2.01 4.02 -1.02 2.04 0 0 Z M0 4 C1 6 1 6 1 6 Z " fill="#3E3B38" transform="translate(781,591)"/>
<path d="M0 0 C2.13 3.19 2.5 5.27 3 9 C1.35 8.67 -0.3 8.34 -2 8 C-2.69 6.25 -2.69 6.25 -3 4 C-1.56 1.75 -1.56 1.75 0 0 Z " fill="#292725" transform="translate(346,591)"/>
<path d="M0 0 C0.33 0.66 0.66 1.32 1 2 C-0.56 4.06 -0.56 4.06 -3 6 C-6.75 5.75 -6.75 5.75 -10 5 C-7.9 2.9 -6.62 2.35 -3.88 1.38 C-3.15 1.11 -2.43 0.85 -1.68 0.59 C-0.85 0.3 -0.85 0.3 0 0 Z " fill="#393633" transform="translate(139,520)"/>
<path d="M0 0 C1.65 0 3.3 0 5 0 C4.01 2.64 3.02 5.28 2 8 C1.01 7.34 0.02 6.68 -1 6 C-0.67 4.02 -0.34 2.04 0 0 Z " fill="#33302D" transform="translate(1215,731)"/>
<path d="M0 0 C-0.75 6.75 -0.75 6.75 -3 9 C-3.99 7.35 -4.98 5.7 -6 4 C-2.25 0 -2.25 0 0 0 Z " fill="#33302D" transform="translate(784,731)"/>
<path d="M0 0 C2.17 3.25 2.69 5.15 3 9 C2.06 11.38 2.06 11.38 1 13 C0.67 13 0.34 13 0 13 C-0.2 11.4 -0.38 9.79 -0.56 8.19 C-0.72 6.85 -0.72 6.85 -0.88 5.48 C-1 3 -1 3 0 0 Z " fill="#B3AFAC" transform="translate(922,699)"/>
<path d="M0 0 C2.43 2.43 2.69 3.62 3 7 C2.06 9.81 2.06 9.81 1 12 C0.34 11.67 -0.32 11.34 -1 11 C-0.67 7.37 -0.34 3.74 0 0 Z " fill="#AAA6A3" transform="translate(487,700)"/>
<path d="M0 0 C1.07 0.17 2.14 0.33 3.25 0.5 C7.03 1.09 7.03 1.09 11 1 C11 1.66 11 2.32 11 3 C7.99 4.51 5.32 4.18 2 4 C1.34 3.34 0.68 2.68 0 2 C0 1.34 0 0.68 0 0 Z " fill="#B5B1AF" transform="translate(1027,511)"/>
<path d="M0 0 C0 0.99 0 1.98 0 3 C-2 4.69 -2 4.69 -4 6 C-2.25 1.12 -2.25 1.12 0 0 Z " fill="#494541" transform="translate(1189,775)"/>
<path d="M0 0 C1.65 0.33 3.3 0.66 5 1 C5 1.33 5 1.66 5 2 C3.02 2 1.04 2 -1 2 C-0.67 1.34 -0.34 0.68 0 0 Z " fill="#B3AFAC" transform="translate(680,817)"/>
<path d="M0 0 C1.65 0.33 3.3 0.66 5 1 C5 1.33 5 1.66 5 2 C3.02 2 1.04 2 -1 2 C-0.67 1.34 -0.34 0.68 0 0 Z " fill="#B3AFAC" transform="translate(245,817)"/>
<path d="M0 0 C0.33 1.32 0.66 2.64 1 4 C0.01 4.5 0.01 4.5 -1 5 C-0.67 3.35 -0.34 1.7 0 0 Z " fill="#494541" transform="translate(794,705)"/>
<path d="M0 0 C0.99 0.5 0.99 0.5 2 1 C1.01 1.5 1.01 1.5 0 2 C0 1.34 0 0.68 0 0 Z " fill="#494541" transform="translate(753,776)"/>
<path d="M0 0 C0.99 0.5 0.99 0.5 2 1 C1.01 1.5 1.01 1.5 0 2 C0 1.34 0 0.68 0 0 Z " fill="#E3E2E1" transform="translate(952,563)"/>
<path d="M0 0 C2 1 2 1 2 1 Z " fill="#494541" transform="translate(750,779)"/>
<path d="" fill="#FCFCFC" transform="translate(0,0)"/>
<path d="M0 0 C2 1 2 1 2 1 Z " fill="#FCFCFC" transform="translate(942,574)"/>
<path d="M0 0 C2 1 2 1 2 1 Z " fill="#A2A09E" transform="translate(126,524)"/>
<path d="" fill="#B3AFAC" transform="translate(0,0)"/>
<path d="" fill="#B3AFAC" transform="translate(0,0)"/>
<path d="" fill="#B3AFAC" transform="translate(0,0)"/>
<path d="" fill="#B3AFAC" transform="translate(0,0)"/>
<path d="" fill="#494541" transform="translate(0,0)"/>
<path d="" fill="#494541" transform="translate(0,0)"/>
<path d="" fill="#494541" transform="translate(0,0)"/>
<path d="" fill="#494541" transform="translate(0,0)"/>
<path d="" fill="#494541" transform="translate(0,0)"/>
<path d="" fill="#494541" transform="translate(0,0)"/>
<path d="" fill="#494541" transform="translate(0,0)"/>
<path d="" fill="#494541" transform="translate(0,0)"/>
<path d="" fill="#494541" transform="translate(0,0)"/>
<path d="" fill="#494541" transform="translate(0,0)"/>
<path d="" fill="#494541" transform="translate(0,0)"/>
<path d="" fill="#494541" transform="translate(0,0)"/>
<path d="" fill="#494541" transform="translate(0,0)"/>
<path d="" fill="#494541" transform="translate(0,0)"/>
<path d="" fill="#494541" transform="translate(0,0)"/>
<path d="" fill="#494541" transform="translate(0,0)"/>
<path d="" fill="#494541" transform="translate(0,0)"/>
<path d="" fill="#494541" transform="translate(0,0)"/>
<path d="" fill="#494541" transform="translate(0,0)"/>
<path d="" fill="#494541" transform="translate(0,0)"/>
<path d="" fill="#494541" transform="translate(0,0)"/>
<path d="" fill="#494541" transform="translate(0,0)"/>
<path d="" fill="#B3AFAC" transform="translate(0,0)"/>
<path d="" fill="#B3AFAC" transform="translate(0,0)"/>
<path d="" fill="#B3AFAC" transform="translate(0,0)"/>
<path d="" fill="#B3AFAC" transform="translate(0,0)"/>
<path d="" fill="#B3AFAC" transform="translate(0,0)"/>
<path d="" fill="#B3AFAC" transform="translate(0,0)"/>
<path d="" fill="#B3AFAC" transform="translate(0,0)"/>
<path d="" fill="#B3AFAC" transform="translate(0,0)"/>
<path d="" fill="#494541" transform="translate(0,0)"/>
<path d="" fill="#494541" transform="translate(0,0)"/>
<path d="" fill="#FCFCFC" transform="translate(0,0)"/>
<path d="" fill="#FCFCFC" transform="translate(0,0)"/>
<path d="" fill="#B3AFAC" transform="translate(0,0)"/>
<path d="" fill="#B3AFAC" transform="translate(0,0)"/>
<path d="" fill="#FCFCFC" transform="translate(0,0)"/>
<path d="" fill="#B3AFAC" transform="translate(0,0)"/>
<path d="" fill="#FCFCFC" transform="translate(0,0)"/>
<path d="" fill="#FCFCFC" transform="translate(0,0)"/>
<path d="" fill="#B3AFAC" transform="translate(0,0)"/>
<path d="" fill="#B3AFAC" transform="translate(0,0)"/>
<path d="" fill="#FCFCFC" transform="translate(0,0)"/>
<path d="" fill="#B3AFAC" transform="translate(0,0)"/>
<path d="" fill="#FCFCFC" transform="translate(0,0)"/>
<path d="" fill="#494541" transform="translate(0,0)"/>
<path d="" fill="#B3AFAC" transform="translate(0,0)"/>
<path d="" fill="#FCFCFC" transform="translate(0,0)"/>
<path d="" fill="#B3AFAC" transform="translate(0,0)"/>
<path d="" fill="#FCFCFC" transform="translate(0,0)"/>
<path d="" fill="#B3AFAC" transform="translate(0,0)"/>
<path d="" fill="#B3AFAC" transform="translate(0,0)"/>
<path d="" fill="#FCFCFC" transform="translate(0,0)"/>
<path d="" fill="#B3AFAC" transform="translate(0,0)"/>
<path d="" fill="#FCFCFC" transform="translate(0,0)"/>
<path d="" fill="#FCFCFC" transform="translate(0,0)"/>
<path d="" fill="#FCFCFC" transform="translate(0,0)"/>
<path d="" fill="#FCFCFC" transform="translate(0,0)"/>
<path d="" fill="#FCFCFC" transform="translate(0,0)"/>
<path d="" fill="#B3AFAC" transform="translate(0,0)"/>
</svg>
